<svg xmlns="http://www.w3.org/2000/svg" width="128" height="128" viewBox="0 0 128 128">
  <title>WATCH</title>
  <g>
    <path d="M89.323,49.125a26.556,26.556,0,0,0-36.7-7.99,27.061,27.061,0,0,0-3.23,2.44,26.555,26.555,0,0,0,31.94,42.24,26.1,26.1,0,0,0,3.02-2.26A26.534,26.534,0,0,0,89.323,49.125Z" fill="#62dff4"/>
    <path d="M84.2,49.758a1.75,1.75,0,0,0-2.459-.279L66.975,61.241,54.927,51.729a1.75,1.75,0,0,0-2.168,2.747l11.405,9L62.05,65.164A1.75,1.75,0,1,0,64.229,67.9l2.756-2.194,2.764,2.182a1.749,1.749,0,0,0,2.168-2.746L69.8,63.469,83.923,52.217A1.749,1.749,0,0,0,84.2,49.758Z" fill="#254b8e"/>
    <g>
      <path d="M66.979,45.14a1.751,1.751,0,0,1-1.75-1.75V41.158a1.75,1.75,0,0,1,3.5,0V43.39A1.75,1.75,0,0,1,66.979,45.14Z" fill="#2b74f7"/>
      <path d="M66.979,87.541a1.75,1.75,0,0,1-1.75-1.75V83.559a1.75,1.75,0,0,1,3.5,0v2.232A1.749,1.749,0,0,1,66.979,87.541Z" fill="#2b74f7"/>
    </g>
    <g>
      <path d="M89.3,65.225H87.064a1.75,1.75,0,0,1,0-3.5H89.3a1.75,1.75,0,1,1,0,3.5Z" fill="#2b74f7"/>
      <path d="M46.9,65.225H44.664a1.75,1.75,0,0,1,0-3.5H46.9a1.75,1.75,0,1,1,0,3.5Z" fill="#2b74f7"/>
    </g>
    <path d="M84.573,32.784v10.8a26.544,26.544,0,0,0-31.95-2.45,27.061,27.061,0,0,0-3.23,2.44V32.784a7.859,7.859,0,0,1,7.859-7.859H76.713A7.86,7.86,0,0,1,84.573,32.784Z" fill="#f93e55"/>
    <path d="M84.573,83.555V95.219a7.856,7.856,0,0,1-7.856,7.856H57.248a7.855,7.855,0,0,1-7.855-7.856V83.555h.2a26.564,26.564,0,0,0,31.74,2.26,26.1,26.1,0,0,0,3.02-2.26Z" fill="#f93e55"/>
  </g>
</svg>
